<?xml version="1.0" encoding="utf-8"?>
<svg viewBox="0 0 500 500" xmlns="http://www.w3.org/2000/svg">
  <g id="Layer 3" transform="matrix(1, 0, 0, 1, -56.041851, -154.722031)">
    <path stroke="#000000" stroke-width="3.06" d="M306.493+174.558L306.493+174.558C436.538+174.558+541.96+280.25+541.96+410.628L541.96+410.628C541.96+541.006+436.538+646.699+306.493+646.699L306.493+646.699C176.448+646.699+71.0259+541.006+71.0259+410.628L71.0259+410.628C71.0259+280.25+176.448+174.558+306.493+174.558Z" fill="#000000" stroke-linecap="butt" opacity="1" stroke-linejoin="miter"/>
  </g>
  <g id="Layer 2" transform="matrix(1, 0, 0, 1, -56.041851, -154.722031)">
    <path stroke="#631e9d" stroke-width="3.06" d="M234.991+484.74L262.177+610.743L307.052+614.64L316.036+508.479L234.991+484.74Z" fill="#631e9d" stroke-linecap="butt" opacity="1" stroke-linejoin="miter"/>
    <path stroke="#631e9d" stroke-width="3.06" d="M324.801+509.637L317.901+613.276L403.881+581.087L344.923+498.981L324.801+509.637Z" fill="#631e9d" stroke-linecap="butt" opacity="1" stroke-linejoin="miter"/>
    <path stroke="#631e9d" stroke-width="3.06" d="M352.567+494.928L412.249+574.001L426.95+557.364L357.541+492.335L352.567+494.928Z" fill="#631e9d" stroke-linecap="butt" opacity="1" stroke-linejoin="miter"/>
    <path stroke="#631e9d" stroke-width="3.06" d="M236.294+475.721L244.088+453.269L256.442+481.241L236.294+475.721Z" fill="#631e9d" stroke-linecap="butt" opacity="1" stroke-linejoin="miter"/>
    <path stroke="#9335e3" stroke-width="3.06" d="M269.248+484.957L248.822+440.644L268.359+381.532L335.193+458.287L296.22+493.195L269.248+484.957Z" fill="#9335e3" stroke-linecap="butt" opacity="1" stroke-linejoin="miter"/>
    <path stroke="#9335e3" stroke-width="3.06" d="M306.493+496.611L320.206+501.199L363.15+477.459L343.403+464.702L306.493+496.611Z" fill="#9335e3" stroke-linecap="butt" opacity="1" stroke-linejoin="miter"/>
    <path stroke="#a752ef" stroke-width="3.06" d="M286.606+388.107L330.652+437.106L358.282+376.613L316.662+387.374L304.205+395.08L301.22+383.022L294.097+391.156L291.144+382.015L286.606+388.107Z" fill="#a752ef" stroke-linecap="butt" opacity="1" stroke-linejoin="miter"/>
    <path stroke="#a752ef" stroke-width="3.06" d="M281.021+382.161L293.223+368.449L296.071+379.468L304.992+369.56L307.6+381.691C307.6+381.691+313.834+370.663+314.022+369.919C314.211+369.176+306.493+390.805+306.493+390.805L350.817+378.543L356.856+375.046L301.587+362.421L275.513+376.613L281.021+382.161Z" fill="#a752ef" stroke-linecap="butt" opacity="1" stroke-linejoin="miter"/>
    <path stroke="#a752ef" stroke-width="3.06" d="M339.915+443.151L414.932+452.528L413.017+407.915L394.751+401.83L371.53+424.662L371.768+398.08L386.48+409.962L394.751+401.83L363.234+390.439L339.915+443.151Z" fill="#a752ef" stroke-linecap="butt" opacity="1" stroke-linejoin="miter"/>
    <path stroke="#9335e3" stroke-width="3.06" d="M349.197+454.689L399.83+460.983L388.542+479.911L349.197+454.689Z" fill="#9335e3" stroke-linecap="butt" opacity="1" stroke-linejoin="miter"/>
    <path stroke="#a752ef" stroke-width="3.06" d="M364.897+488.482L370.379+484.74L426.832+524.727L407.078+524.657L364.897+488.482Z" fill="#a752ef" stroke-linecap="butt" opacity="1" stroke-linejoin="miter"/>
    <path stroke="#a752ef" stroke-width="3.06" d="M275.744+315.633L258.679+300.015L272.153+276.77L275.744+315.633Z" fill="#a752ef" stroke-linecap="butt" opacity="1" stroke-linejoin="miter"/>
    <path stroke="#a752ef" stroke-width="3.06" d="M248.822+410.628L225.751+476.869L171.047+504.734L248.822+410.628Z" fill="#a752ef" stroke-linecap="butt" opacity="1" stroke-linejoin="miter"/>
    <path stroke="#a752ef" stroke-width="3.06" d="M225.747+487.252L233.168+527.132L181.771+560.153L200.636+501.199L225.747+487.252Z" fill="#a752ef" stroke-linecap="butt" opacity="1" stroke-linejoin="miter"/>
    <path stroke="#a752ef" stroke-width="3.06" d="M236.003+538.142L250.547+605.835L209.724+587.627L236.003+538.142Z" fill="#a752ef" stroke-linecap="butt" opacity="1" stroke-linejoin="miter"/>
    <path stroke="#a752ef" stroke-width="3.06" d="M186.094+567.838L221.371+546.395L202.769+582.097L186.094+567.838Z" fill="#a752ef" stroke-linecap="butt" opacity="1" stroke-linejoin="miter"/>
    <path stroke="#ffdf00" stroke-width="3.06" d="M335.193+360.372L360.891+365.537L354.958+323.011L283.252+327.09L237.557+377.146L244.429+397.733L257.147+387.055L261.382+374.574L298.642+352.265L334.072+347.765L335.193+360.372Z" fill="#ffdf00" stroke-linecap="butt" opacity="1" stroke-linejoin="miter"/>
    <path stroke="#ffdf00" stroke-width="3.06" d="M369.719+350.463L371.645+369.039L429.941+361.486L369.719+350.463Z" fill="#ffdf00" stroke-linecap="butt" opacity="1" stroke-linejoin="miter"/>
    <path stroke="#ffdf00" stroke-width="3.06" d="M368.173+341.638L364.897+319.672L445.298+275.342L368.173+341.638Z" fill="#ffdf00" stroke-linecap="butt" opacity="1" stroke-linejoin="miter"/>
    <path stroke="#ffdf00" stroke-width="3.06" d="M358.282+313.562L326.292+313.562L378.842+212.742L358.282+313.562Z" fill="#ffdf00" stroke-linecap="butt" opacity="1" stroke-linejoin="miter"/>
    <path stroke="#ffdf00" stroke-width="3.06" d="M316.036+313.838L286.726+315.633L285.531+212.742L316.036+313.838Z" fill="#ffdf00" stroke-linecap="butt" opacity="1" stroke-linejoin="miter"/>
    <path stroke="#ffdf00" stroke-width="3.06" d="M269.347+328.038L253.606+343.734L200.636+269.833L269.347+328.038Z" fill="#ffdf00" stroke-linecap="butt" opacity="1" stroke-linejoin="miter"/>
    <path stroke="#ffdf00" stroke-width="3.06" d="M245.475+353.79L231.851+369.039L169.465+335.914L245.475+353.79Z" fill="#ffdf00" stroke-linecap="butt" opacity="1" stroke-linejoin="miter"/>
    <path stroke="#ffdf00" stroke-width="3.06" d="M228.722+384.003L176.605+410.274L233.168+398.358L228.722+384.003Z" fill="#ffdf00" stroke-linecap="butt" opacity="1" stroke-linejoin="miter"/>
    <path stroke="#ffdf00" stroke-width="3.06" d="M227.225+384.003" fill="#ffdf00" stroke-linecap="butt" opacity="1" stroke-linejoin="miter"/>
  </g>
</svg>